<svg width="74" height="74" viewBox="0 0 74 74" fill="none" xmlns="http://www.w3.org/2000/svg">
<g clip-path="url(#clip0_14_173)">
<rect width="73.0932" height="73.0932" fill="white" style="fill:white;fill-opacity:1;"/>
<g filter="url(#filter0_d_14_173)">
<path d="M19.9426 56.9333C15.6199 56.9333 12.2578 55.6956 9.85636 53.2203C7.49182 50.7079 6.30955 47.1057 6.30955 42.4136V16.6438H14.179V43.0786C14.179 45.2953 14.6778 46.9949 15.6753 48.1771C16.6729 49.3594 18.0953 49.9505 19.9426 49.9505C21.7899 49.9505 23.2123 49.3594 24.2099 48.1771C25.2074 46.9949 25.7062 45.2953 25.7062 43.0786V16.6438H33.5756V42.4136C33.5756 47.1057 32.3749 50.7079 29.9734 53.2203C27.6089 55.6956 24.2653 56.9333 19.9426 56.9333ZM50.5122 56.0466V30.2214H40.8693V23.682H45.192C46.6698 23.682 47.8705 23.4603 48.7942 23.017C49.7548 22.5367 50.4383 21.7977 50.8447 20.8002C51.288 19.7657 51.5097 18.3987 51.5097 16.6992H58.3817V56.0466H50.5122ZM39.2067 56.0466V48.953H67.1378V56.0466H39.2067Z" fill="#35363A" style="fill:#35363A;fill:color(display-p3 0.2068 0.2127 0.2264);fill-opacity:1;"/>
<path d="M9.85636 53.2203L9.52996 53.5274L9.53469 53.5323L9.85636 53.2203ZM6.30955 16.6438V16.1956H5.86138V16.6438H6.30955ZM14.179 16.6438H14.6272V16.1956H14.179V16.6438ZM15.6753 48.1771L15.3328 48.4661L15.3328 48.4661L15.6753 48.1771ZM24.2099 48.1771L23.8673 47.8881L23.8673 47.8881L24.2099 48.1771ZM25.7062 16.6438V16.1956H25.258V16.6438H25.7062ZM33.5756 16.6438H34.0238V16.1956H33.5756V16.6438ZM29.9734 53.2203L29.6494 52.9106L29.6493 52.9107L29.9734 53.2203ZM19.9426 56.4851C15.7086 56.4851 12.4748 55.2757 10.178 52.9082L9.53469 53.5323C12.0408 56.1156 15.5313 57.3815 19.9426 57.3815V56.4851ZM10.1827 52.9131C7.921 50.51 6.75772 47.0333 6.75772 42.4136H5.86138C5.86138 47.1781 7.06264 50.9058 9.53 53.5274L10.1827 52.9131ZM6.75772 42.4136V16.6438H5.86138V42.4136H6.75772ZM6.30955 17.092H14.179V16.1956H6.30955V17.092ZM13.7309 16.6438V43.0786H14.6272V16.6438H13.7309ZM13.7309 43.0786C13.7309 45.3562 14.2428 47.1743 15.3328 48.4661L16.0179 47.8881C15.1128 46.8155 14.6272 45.2345 14.6272 43.0786H13.7309ZM15.3328 48.4661C16.4322 49.7691 17.9915 50.3987 19.9426 50.3987V49.5024C18.1991 49.5024 16.9136 48.9497 16.0179 47.8881L15.3328 48.4661ZM19.9426 50.3987C21.8937 50.3987 23.453 49.7691 24.5524 48.4661L23.8673 47.8881C22.9716 48.9497 21.6861 49.5024 19.9426 49.5024V50.3987ZM24.5524 48.4661C25.6424 47.1743 26.1543 45.3562 26.1543 43.0786H25.258C25.258 45.2345 24.7724 46.8155 23.8673 47.8881L24.5524 48.4661ZM26.1543 43.0786V16.6438H25.258V43.0786H26.1543ZM25.7062 17.092H33.5756V16.1956H25.7062V17.092ZM33.1275 16.6438V42.4136H34.0238V16.6438H33.1275ZM33.1275 42.4136C33.1275 47.0316 31.9467 50.5073 29.6494 52.9106L30.2974 53.5299C32.8031 50.9085 34.0238 47.1798 34.0238 42.4136H33.1275ZM29.6493 52.9107C27.3903 55.2756 24.177 56.4851 19.9426 56.4851V57.3815C24.3536 57.3815 27.8274 56.1157 30.2975 53.5298L29.6493 52.9107ZM50.5122 56.0466H50.064V56.4948H50.5122V56.0466ZM50.5122 30.2214H50.9603V29.7732H50.5122V30.2214ZM40.8693 30.2214H40.4211V30.6696H40.8693V30.2214ZM40.8693 23.682V23.2338H40.4211V23.682H40.8693ZM48.7942 23.017L48.9882 23.421L48.9946 23.4178L48.7942 23.017ZM50.8447 20.8002L50.4327 20.6236L50.4296 20.6311L50.8447 20.8002ZM51.5097 16.6992V16.251H51.0615V16.6992H51.5097ZM58.3817 16.6992H58.8298V16.251H58.3817V16.6992ZM58.3817 56.0466V56.4948H58.8298V56.0466H58.3817ZM39.2067 56.0466H38.7586V56.4948H39.2067V56.0466ZM39.2067 48.953V48.5048H38.7586V48.953H39.2067ZM67.1378 48.953H67.586V48.5048H67.1378V48.953ZM67.1378 56.0466V56.4948H67.586V56.0466H67.1378ZM50.9603 56.0466V30.2214H50.064V56.0466H50.9603ZM50.5122 29.7732H40.8693V30.6696H50.5122V29.7732ZM41.3175 30.2214V23.682H40.4211V30.2214H41.3175ZM40.8693 24.1301H45.192V23.2338H40.8693V24.1301ZM45.192 24.1301C46.7094 24.1301 47.9833 23.9033 48.9881 23.421L48.6003 22.6129C47.7578 23.0173 46.6302 23.2338 45.192 23.2338V24.1301ZM48.9946 23.4178C50.0528 22.8887 50.8124 22.0672 51.2597 20.9693L50.4296 20.6311C50.0641 21.5282 49.4567 22.1846 48.5938 22.6161L48.9946 23.4178ZM51.2566 20.9767C51.7329 19.8655 51.9579 18.4314 51.9579 16.6992H51.0615C51.0615 18.366 50.8432 19.6659 50.4328 20.6237L51.2566 20.9767ZM51.5097 17.1474H58.3817V16.251H51.5097V17.1474ZM57.9335 16.6992V56.0466H58.8298V16.6992H57.9335ZM58.3817 55.5984H50.5122V56.4948H58.3817V55.5984ZM39.6549 56.0466V48.953H38.7586V56.0466H39.6549ZM39.2067 49.4012H67.1378V48.5048H39.2067V49.4012ZM66.6897 48.953V56.0466H67.586V48.953H66.6897ZM67.1378 55.5984H39.2067V56.4948H67.1378V55.5984Z" fill="#C3C3C3" style="fill:#C3C3C3;fill:color(display-p3 0.7636 0.7636 0.7636);fill-opacity:1;"/>
</g>
</g>
<defs>
<filter id="filter0_d_14_173" x="2.27603" y="16.1956" width="68.8954" height="48.3566" filterUnits="userSpaceOnUse" color-interpolation-filters="sRGB">
<feFlood flood-opacity="0" result="BackgroundImageFix"/>
<feColorMatrix in="SourceAlpha" type="matrix" values="0 0 0 0 0 0 0 0 0 0 0 0 0 0 0 0 0 0 127 0" result="hardAlpha"/>
<feOffset dy="3.58535"/>
<feGaussianBlur stdDeviation="1.79267"/>
<feComposite in2="hardAlpha" operator="out"/>
<feColorMatrix type="matrix" values="0 0 0 0 0 0 0 0 0 0 0 0 0 0 0 0 0 0 0.25 0"/>
<feBlend mode="normal" in2="BackgroundImageFix" result="effect1_dropShadow_14_173"/>
<feBlend mode="normal" in="SourceGraphic" in2="effect1_dropShadow_14_173" result="shape"/>
</filter>
<clipPath id="clip0_14_173">
<rect width="73.0932" height="73.0932" fill="white" style="fill:white;fill-opacity:1;"/>
</clipPath>
</defs>
</svg>
