<svg width="24" height="24" viewBox="0 0 24 24" fill="none" xmlns="http://www.w3.org/2000/svg">
<g clip-path="url(#clip0_5_67)">
<rect width="24" height="24" fill="white" style="fill:white;fill-opacity:1;"/>
<path d="M20 8.511C20.884 8.795 21.5 9.639 21.5 10.608V14.894C21.5 16.03 20.653 16.994 19.52 17.087C19.18 17.114 18.84 17.139 18.5 17.159V20.25L15.5 17.25C14.146 17.25 12.806 17.195 11.48 17.087C11.1913 17.0637 10.9105 16.9813 10.655 16.845M20 8.511C19.8455 8.46127 19.6858 8.42939 19.524 8.416C16.8459 8.19368 14.1541 8.19368 11.476 8.416C10.345 8.51 9.5 9.473 9.5 10.608V14.894C9.5 15.731 9.96 16.474 10.655 16.845M20 8.511V6.637C20 5.016 18.848 3.611 17.24 3.402C15.1708 3.13379 13.0865 2.99951 11 3C8.885 3 6.802 3.137 4.76 3.402C3.152 3.611 2 5.016 2 6.637V12.863C2 14.484 3.152 15.889 4.76 16.098C5.337 16.173 5.917 16.238 6.5 16.292V21L10.655 16.845" stroke="#005EFF" style="stroke:#005EFF;stroke:color(display-p3 0.0000 0.3667 1.0000);stroke-opacity:1;" stroke-width="1.5" stroke-linecap="round" stroke-linejoin="round"/>
<g filter="url(#filter0_d_5_67)">
<path d="M21.5 10.608C21.5 9.63901 20.884 8.79501 20 8.51101C19.8455 8.46127 19.6858 8.4294 19.524 8.41601C16.8459 8.19369 14.1541 8.19369 11.476 8.41601C10.345 8.51001 9.5 9.47301 9.5 10.608V14.894C9.5 15.731 9.96 16.474 10.655 16.845C10.9105 16.9813 11.1913 17.0637 11.48 17.087C12.806 17.195 14.146 17.25 15.5 17.25L18.5 20.25V17.159C18.84 17.139 19.18 17.114 19.52 17.087C20.653 16.994 21.5 16.03 21.5 14.894V10.608Z" fill="#0077FF" style="fill:#0077FF;fill:color(display-p3 0.0000 0.4667 1.0000);fill-opacity:1;"/>
<path d="M21.5 10.608C21.5 9.63901 20.884 8.79501 20 8.51101C19.8455 8.46127 19.6858 8.4294 19.524 8.41601C16.8459 8.19369 14.1541 8.19369 11.476 8.41601C10.345 8.51001 9.5 9.47301 9.5 10.608V14.894C9.5 15.731 9.96 16.474 10.655 16.845C10.9105 16.9813 11.1913 17.0637 11.48 17.087C12.806 17.195 14.146 17.25 15.5 17.25L18.5 20.25V17.159C18.84 17.139 19.18 17.114 19.52 17.087C20.653 16.994 21.5 16.03 21.5 14.894V10.608Z" stroke="#00337E" style="stroke:#00337E;stroke:color(display-p3 0.0000 0.1981 0.4952);stroke-opacity:1;" stroke-width="1.5" stroke-linecap="round" stroke-linejoin="round"/>
</g>
<g filter="url(#filter1_d_5_67)">
<rect x="12.5317" y="12.2466" width="1" height="1" rx="0.5" fill="#D9D9D9" style="fill:#D9D9D9;fill:color(display-p3 0.8510 0.8510 0.8510);fill-opacity:1;"/>
</g>
<g filter="url(#filter2_d_5_67)">
<rect x="18.5317" y="12.2466" width="1" height="1" rx="0.5" fill="#D9D9D9" style="fill:#D9D9D9;fill:color(display-p3 0.8510 0.8510 0.8510);fill-opacity:1;"/>
</g>
<g filter="url(#filter3_d_5_67)">
<rect x="15.5317" y="12.2466" width="1" height="1" rx="0.5" fill="#D9D9D9" style="fill:#D9D9D9;fill:color(display-p3 0.8510 0.8510 0.8510);fill-opacity:1;"/>
</g>
</g>
<defs>
<filter id="filter0_d_5_67" x="6.75" y="7.49927" width="17.5" height="19.5008" filterUnits="userSpaceOnUse" color-interpolation-filters="sRGB">
<feFlood flood-opacity="0" result="BackgroundImageFix"/>
<feColorMatrix in="SourceAlpha" type="matrix" values="0 0 0 0 0 0 0 0 0 0 0 0 0 0 0 0 0 0 127 0" result="hardAlpha"/>
<feOffset dy="4"/>
<feGaussianBlur stdDeviation="1"/>
<feComposite in2="hardAlpha" operator="out"/>
<feColorMatrix type="matrix" values="0 0 0 0 0 0 0 0 0 0 0 0 0 0 0 0 0 0 0.15 0"/>
<feBlend mode="normal" in2="BackgroundImageFix" result="effect1_dropShadow_5_67"/>
<feBlend mode="normal" in="SourceGraphic" in2="effect1_dropShadow_5_67" result="shape"/>
</filter>
<filter id="filter1_d_5_67" x="8.53174" y="12.2466" width="9" height="9" filterUnits="userSpaceOnUse" color-interpolation-filters="sRGB">
<feFlood flood-opacity="0" result="BackgroundImageFix"/>
<feColorMatrix in="SourceAlpha" type="matrix" values="0 0 0 0 0 0 0 0 0 0 0 0 0 0 0 0 0 0 127 0" result="hardAlpha"/>
<feOffset dy="4"/>
<feGaussianBlur stdDeviation="2"/>
<feComposite in2="hardAlpha" operator="out"/>
<feColorMatrix type="matrix" values="0 0 0 0 0 0 0 0 0 0 0 0 0 0 0 0 0 0 0.25 0"/>
<feBlend mode="normal" in2="BackgroundImageFix" result="effect1_dropShadow_5_67"/>
<feBlend mode="normal" in="SourceGraphic" in2="effect1_dropShadow_5_67" result="shape"/>
</filter>
<filter id="filter2_d_5_67" x="14.5317" y="12.2466" width="9" height="9" filterUnits="userSpaceOnUse" color-interpolation-filters="sRGB">
<feFlood flood-opacity="0" result="BackgroundImageFix"/>
<feColorMatrix in="SourceAlpha" type="matrix" values="0 0 0 0 0 0 0 0 0 0 0 0 0 0 0 0 0 0 127 0" result="hardAlpha"/>
<feOffset dy="4"/>
<feGaussianBlur stdDeviation="2"/>
<feComposite in2="hardAlpha" operator="out"/>
<feColorMatrix type="matrix" values="0 0 0 0 0 0 0 0 0 0 0 0 0 0 0 0 0 0 0.25 0"/>
<feBlend mode="normal" in2="BackgroundImageFix" result="effect1_dropShadow_5_67"/>
<feBlend mode="normal" in="SourceGraphic" in2="effect1_dropShadow_5_67" result="shape"/>
</filter>
<filter id="filter3_d_5_67" x="11.5317" y="12.2466" width="9" height="9" filterUnits="userSpaceOnUse" color-interpolation-filters="sRGB">
<feFlood flood-opacity="0" result="BackgroundImageFix"/>
<feColorMatrix in="SourceAlpha" type="matrix" values="0 0 0 0 0 0 0 0 0 0 0 0 0 0 0 0 0 0 127 0" result="hardAlpha"/>
<feOffset dy="4"/>
<feGaussianBlur stdDeviation="2"/>
<feComposite in2="hardAlpha" operator="out"/>
<feColorMatrix type="matrix" values="0 0 0 0 0 0 0 0 0 0 0 0 0 0 0 0 0 0 0.25 0"/>
<feBlend mode="normal" in2="BackgroundImageFix" result="effect1_dropShadow_5_67"/>
<feBlend mode="normal" in="SourceGraphic" in2="effect1_dropShadow_5_67" result="shape"/>
</filter>
<clipPath id="clip0_5_67">
<rect width="24" height="24" fill="white" style="fill:white;fill-opacity:1;"/>
</clipPath>
</defs>
</svg>
